<svg width="35" height="35" viewBox="0 0 35 35" fill="none" xmlns="http://www.w3.org/2000/svg">
<path d="M10.9473 21.6052L23.0312 9.58938L25.1707 11.741L13.0867 23.7568L12.752 21.9939L10.9473 21.6052Z" fill="#467469"/>
<path d="M7.88975 20.0213C8.12866 19.3442 8.51061 18.7265 9.00962 18.2102L20.1408 6.69315L21.8067 8.36847L10.5295 19.712C10.0175 20.2269 9.62387 20.8473 9.37591 21.5298L7.75369 25.9949L8.75233 26.9938L13.2099 25.3728C13.8965 25.1231 14.52 24.726 15.0367 24.2094L26.2523 12.9937L27.7523 14.4937L16.5543 25.6918C16.0263 26.2197 15.3869 26.6227 14.6828 26.8712L7.25232 29.4937L6.97696 29.5724C5.74299 29.925 4.6787 28.6423 5.25299 27.4946L7.88975 20.0213Z" fill="#467469"/>
<rect x="21.4668" y="5.71387" width="2.40665" height="10.756" transform="rotate(-45.6164 21.4668 5.71387)" fill="#467469"/>
<path d="M24.2535 2.99416L25.8488 1.66393C26.6434 1.00133 27.8122 1.05417 28.5438 1.78577L32.961 6.20294C33.6922 6.93416 33.7454 8.10222 33.0837 8.8969L31.7538 10.4942L24.2535 2.99416Z" fill="#467469"/>
</svg>
